<?xml version="1.0" encoding="utf-8"?>
<!-- Generator: Adobe Illustrator 25.2.1, SVG Export Plug-In . SVG Version: 6.00 Build 0)  -->
<svg version="1.1" id="Layer_1" xmlns="http://www.w3.org/2000/svg" xmlns:xlink="http://www.w3.org/1999/xlink" x="0px" y="0px"
	 viewBox="0 0 122.9 74.8" style="enable-background:new 0 0 122.9 74.8;" xml:space="preserve">
<style type="text/css">
	.st0{fill-rule:evenodd;clip-rule:evenodd;fill:#DDDDDD;}
</style>
<path class="st0" d="M51.9,43.9c5.5-3.5,5.5-7.5,0-10.6L9,1.9C4.6-0.9-0.1,0.7,0,6.6l0.2,61.7c0.4,6.3,4,8.1,9.3,5.1L51.9,43.9z
	 M105.8,0h13.1c2.2,0,3.9,1.8,3.9,3.9v66.9c0,2.2-1.8,3.9-3.9,3.9h-13.1c-2.2,0-3.9-1.8-3.9-3.9V3.9C101.9,1.8,103.7,0,105.8,0z
	 M71.9,0H85c2.2,0,4,1.8,4,3.9v66.9c0,2.2-1.8,3.9-4,3.9H71.9c-2.2,0-3.9-1.8-3.9-3.9V3.9C68,1.8,69.8,0,71.9,0z"/>
</svg>
